<?xml version="1.0" encoding="utf-8"?>
<svg version="1.1" xmlns:xlink="http://www.w3.org/1999/xlink" width="44px" height="44px" xmlns="http://www.w3.org/2000/svg">
  <g transform="matrix(1 0 0 1 -53 -198 )">
    <path d="M 75 198  C 87.32 198  97 207.68  97 220  C 97 232.32  87.32 242  75 242  C 62.68 242  53 232.32  53 220  C 53 207.68  62.68 198  75 198  Z " fill-rule="nonzero" fill="#ffffff" stroke="none" />
    <path d="M 75 198.5  C 87.04 198.5  96.5 207.96  96.5 220  C 96.5 232.04  87.04 241.5  75 241.5  C 62.96 241.5  53.5 232.04  53.5 220  C 53.5 207.96  62.96 198.5  75 198.5  Z " stroke-width="1" stroke="#797979" fill="none" />
  </g>
</svg>