<?xml version="1.0" encoding="utf-8"?>
<svg version="1.1" xmlns:xlink="http://www.w3.org/1999/xlink" width="36px" height="36px" xmlns="http://www.w3.org/2000/svg">
  <g transform="matrix(1 0 0 1 -437 -198 )">
    <path d="M 455 198  C 465.08 198  473 205.92  473 216  C 473 226.08  465.08 234  455 234  C 444.92 234  437 226.08  437 216  C 437 205.92  444.92 198  455 198  Z " fill-rule="nonzero" fill="#ffffff" stroke="none" />
    <path d="M 455 198.5  C 464.8 198.5  472.5 206.2  472.5 216  C 472.5 225.8  464.8 233.5  455 233.5  C 445.2 233.5  437.5 225.8  437.5 216  C 437.5 206.2  445.2 198.5  455 198.5  Z " stroke-width="1" stroke="#797979" fill="none" />
  </g>
</svg>