<?xml version="1.0" encoding="utf-8"?>
<svg version="1.1" xmlns:xlink="http://www.w3.org/1999/xlink" width="29px" height="23px" xmlns="http://www.w3.org/2000/svg">
  <g transform="matrix(1 0 0 1 -963 -513 )">
    <path d="M 9.90658114891244 18.3984159779614  C 10.3432794199665 18.2558539944904  10.6802379624466 18.0050505050505  10.9174567763525 17.6460055096419  C 11.1438929168991 17.2869605142332  11.2031976203755 16.9226354453627  11.0953708867819 16.5530303030303  C 10.9875441531883 16.1834251606979  10.7449340026027 15.9194214876033  10.3675404350251 15.7610192837466  C 10.0009295408068 15.6131772268136  9.60736196319018 15.6078971533517  9.18683770217513 15.7451790633609  C 8.76631344116007 15.8824609733701  8.44283324037925 16.1253443526171  8.21639709983268 16.4738292011019  C 7.97917828592675 16.8328741965106  7.90909090909091 17.1945592286501  8.00613496932515 17.5588842975207  C 8.1031790295594 17.9232093663912  8.33500650678565 18.1898530762167  8.7016174010039 18.3588154269972  C 9.06822829522216 18.5277777777778  9.46988287785834 18.5409779614325  9.90658114891244 18.3984159779614  Z M 12.0819854991634 16.0223829201102  C 12.2437255995538 15.9643021120294  12.3623350065068 15.8666207529844  12.4378137200223 15.7293388429752  C 12.5240751068972 15.592056932966  12.5429447852761 15.4521349862259  12.494422755159 15.3095730027548  C 12.4459007250418 15.1670110192837  12.3515523331474 15.0693296602388  12.2113775794757 15.0165289256198  C 12.0604201524447 14.9637281910009  11.9067670570738 14.9663682277319  11.7504182933631 15.0244490358127  C 11.5940695296524 15.0825298438935  11.4781557910392 15.1802112029385  11.4026770775237 15.3174931129477  C 11.2193716304146 15.6448576675849  11.2894590072504 15.8824609733701  11.6129392080312 16.030303030303  C 11.7638966350623 16.0831037649219  11.920245398773 16.080463728191  12.0819854991634 16.0223829201102  Z M 15.2116564417178 14.4066804407713  C 15.7238334262874 15.3623737373737  15.7373117679866 16.3682277318641  15.2520914668154 17.4242424242424  C 14.7668711656442 18.5013774104683  13.9150399702547 19.2933884297521  12.696597880647 19.8002754820937  C 11.4781557910392 20.3071625344353  10.2704963747909 20.370523415978  9.07361963190184 19.9903581267218  C 7.91987358245027 19.6313131313131  7.12465142219743 18.9633838383838  6.68795315114334 17.9865702479339  C 6.25125488008924 17.0097566574839  6.28629856850716 16.0197428833792  6.7930842163971 15.0165289256198  C 7.29986986428704 14.034435261708  8.1166573712586 13.3005050505051  9.24344673731177 12.814738292011  C 10.3702361033649 12.328971533517  11.5051124744376 12.228650137741  12.6480758505298 12.5137741046832  C 13.8449525934189 12.8200183654729  14.6994794571482 13.450987144169  15.2116564417178 14.4066804407713  Z M 18.1553262688232 19.0795454545455  C 19.7349879159695 17.8281680440771  20.4493400260271 16.4315886134068  20.2983825989961 14.8898071625344  C 20.2013385387619 13.8760330578512  19.7215095742703 12.9784205693297  18.8588957055215 12.1969696969697  C 17.9962818367726 11.4155188246097  16.8721881390593 10.8399908172635  15.4866146123815 10.4703856749311  C 14.1010410857037 10.1007805325987  12.6211191671314 9.98989898989899  11.0468488566648 10.137741046832  C 8.64231269752742 10.380624426079  6.65021379438557 11.1277548209366  5.07055214723926 12.379132231405  C 3.49089050009295 13.6305096418733  2.77653839003532 15.0270890725436  2.92749581706637 16.568870523416  C 3.02453987730061 17.5826446280992  3.50436884179216 18.4802571166208  4.36698271054099 19.2617079889807  C 5.22959657928983 20.0431588613407  6.35369027700316 20.6186868686869  7.73926380368098 20.9882920110193  C 9.1248373303588 21.3578971533517  10.604759248931 21.4687786960514  12.1790295593977 21.3209366391185  C 14.583565718535 21.0780532598714  16.5756646216769 20.3309228650138  18.1553262688232 19.0795454545455  Z M 24.7300613496933 13.107782369146  C 25.0966722439115 13.6621900826446  25.2799776910206 14.277318640955  25.2799776910206 14.9531680440771  C 25.2799776910206 15.6712580348944  25.0804982338725 16.4078282828283  24.6815393195761 17.1628787878788  C 24.2825804052798 17.9179292929293  23.6949247071946 18.6412993572084  22.9185722253207 19.3329889807163  C 22.1422197434467 20.0246786042241  21.2337795129206 20.6450872359963  20.1932515337423 21.1942148760331  C 19.152723554564 21.7433425160698  17.9342814649563 22.1815886134068  16.5379252649191 22.5089531680441  C 15.1415690648819 22.8363177226814  13.6832124930284 23  12.1628555493586 23  C 10.6424986056888 23  9.15988101877673 22.8231175390266  7.71500278862242 22.4693526170799  C 6.27012455846812 22.1155876951332  4.97350808700502 21.6245408631772  3.82515337423313 20.9962121212121  C 2.67679866146124 20.367883379247  1.75218442089608 19.5705922865014  1.05131065253765 18.6043388429752  C 0.350436884179215 17.638085399449  0 16.5847107438017  0 15.4442148760331  C 0 14.229797979798  0.374697899237777 12.9361799816345  1.12409369771333 11.5633608815427  C 1.87348949618888 10.1905417814509  2.93827849042573 8.82828282828283  4.31846068042387 7.47658402203857  C 6.14073247815579 5.69191919191919  7.98187395426659 4.44582185491276  9.84188510875627 3.73829201101928  C 11.701896263246 3.0307621671258  13.0308607547871 3.06772268135904  13.8287785833798 3.84917355371901  C 14.5296523517382 4.52502295684114  14.6374790853318 5.62855831037649  14.1522587841606 7.15977961432507  C 14.1091280907232 7.30762167125803  14.1037367540435 7.41322314049587  14.1360847741216 7.47658402203857  C 14.1684327941997 7.53994490358126  14.2223461609965 7.57690541781451  14.297824874512 7.58746556473829  C 14.3733035880275 7.59802571166207  14.4514779698829 7.59538567493113  14.5323480200781 7.57954545454546  C 14.6132180702733 7.56370523415978  14.686001115449 7.54522497704316  14.7506971556051 7.52410468319559  L 14.8477412158394 7.49242424242424  C 16.3465328127905 6.86937557392103  17.6728016359918 6.55785123966942  18.8265476854434 6.55785123966942  C 19.980293734895 6.55785123966942  20.805168246886 6.87993572084481  21.3011712214166 7.52410468319559  C 21.7863915225878 8.18939393939394  21.7863915225878 9.12924701561065  21.3011712214166 10.3436639118457  C 21.2796058746979 10.4809458218549  21.2553448596393 10.5865472910927  21.2283881762409 10.6604683195592  C 21.2014314928425 10.7343893480257  21.2256925079011 10.8003902662994  21.3011712214166 10.8584710743802  C 21.3766499349321 10.916551882461  21.4413459750883 10.9561524334252  21.4952593418851 10.9772727272727  C 21.5491727086819 10.9983930211203  21.6408254322365 11.0300734618916  21.7702175125488 11.0723140495868  C 22.3848298940323 11.2623966942149  22.9401375720394 11.5105601469238  23.43614054657 11.8168044077135  C 23.9321435211006 12.1230486685032  24.363450455475 12.5533746556474  24.7300613496933 13.107782369146  Z M 22.4495259341885 4.03133608815427  C 23.0857036623908 4.22669880624426  23.6302286670385 4.57254361799816  24.0831009481316 5.06887052341598  C 24.5359732292248 5.56519742883379  24.8298010782673 6.13808539944904  24.9645844952593 6.78753443526171  C 25.0993679122513 7.43698347107438  25.0643242238334 8.05739210284665  24.8594534300056 8.64876033057851  C 24.7731920431307 8.89164370982553  24.6141476110801 9.07116620752984  24.3823201338539 9.18732782369146  C 24.1504926566276 9.30348943985308  23.9105781743819 9.32460973370064  23.6625766871166 9.25068870523416  C 23.4145751998513 9.16620752984389  23.2312697527421 9.01044536271809  23.1126603457892 8.78340220385675  C 22.9940509388362 8.55635904499541  22.9724855921175 8.32139577594123  23.047964305633 8.07851239669422  C 23.2636177728202 7.41322314049587  23.1342256925079 6.8271349862259  22.659788064696 6.3202479338843  C 22.1853504368842 5.8133608815427  21.6084774121584 5.62855831037649  20.9291689905187 5.76584022038567  C 20.670384829894 5.81864095500459  20.4277746793084 5.77640036730946  20.2013385387619 5.63911845730028  C 19.9749023982153 5.50183654729109  19.8401189812233 5.3064738292011  19.7969882877858 5.0530303030303  C 19.743074920989 4.7995867768595  19.7862056144265 4.56462350780532  19.9263803680982 4.34814049586777  C 20.0665551217698 4.13165748393021  20.266034578918 3.99701561065197  20.5248187395427 3.94421487603306  C 21.1717791411043 3.80693296602387  21.8133482059862 3.83597337006428  22.4495259341885 4.03133608815427  Z M 23.6464026770775 0.356404958677685  C 24.9511061535601 0.752410468319559  26.0725041829336 1.46258034894398  27.010596765198 2.48691460055096  C 27.9486893474624 3.50068870523416  28.5552147239264 4.67550505050505  28.8301728945901 6.01136363636364  C 29.1051310652538 7.34722222222222  29.0323480200781 8.62235996326905  28.611823759063 9.83677685950413  C 28.5147796988288 10.1219008264463  28.3314742517197 10.3331037649219  28.0619074177356 10.4703856749311  C 27.7923405837516 10.6076675849403  27.5119910764083 10.6287878787879  27.2208588957055 10.5337465564738  C 26.9297267150028 10.4387052341598  26.7140732478156 10.2591827364555  26.5738984941439 9.99517906336088  C 26.4337237404722 9.7311753902663  26.4067670570738 9.45661157024793  26.4930284439487 9.17148760330578  C 26.7949432980108 8.30555555555555  26.8488566648076 7.39738292011019  26.6547685443391 6.4469696969697  C 26.4606804238706 5.4965564738292  26.0293734894962 4.66230486685032  25.3608477412158 3.94421487603306  C 24.6923219929355 3.21556473829201  23.8944041643428 2.71131772268136  22.9670942554378 2.4314738292011  C 22.0397843465328 2.15162993572084  21.1070831009481 2.10674931129477  20.1689905186838 2.29683195592286  C 19.8670756646217 2.36019283746557  19.5867261572783 2.31003213957759  19.3279419966537 2.14634986225895  C 19.069157836029 1.98266758494031  18.9074177356386 1.75298438934802  18.8427216954824 1.45730027548209  C 18.7780256553263 1.16161616161616  18.8292433537832 0.889692378328739  18.9963747908533 0.641528925619836  C 19.1635062279234 0.393365472910927  19.3980293734895 0.237603305785124  19.6999442275516 0.174242424242424  C 21.0262130507529 -0.100321395775945  22.3416992005949 -0.0396005509641861  23.6464026770775 0.356404958677685  Z " fill-rule="nonzero" fill="#000000" stroke="none" transform="matrix(1 0 0 1 963 513 )" />
  </g>
</svg>