<?xml version="1.0" encoding="utf-8"?>
<svg version="1.1" xmlns:xlink="http://www.w3.org/1999/xlink" width="16px" height="26px" xmlns="http://www.w3.org/2000/svg">
  <g transform="matrix(1 0 0 1 -885 -512 )">
    <path d="M 9.17708333333333 24.54765625  C 9.50347222222222 24.2294270833333  9.66666666666667 23.846875  9.66666666666667 23.4  C 9.66666666666667 22.953125  9.50347222222222 22.5705729166667  9.17708333333333 22.25234375  C 8.85069444444444 21.9341145833333  8.45833333333333 21.775  8 21.775  C 7.54166666666667 21.775  7.14930555555556 21.9341145833333  6.82291666666667 22.25234375  C 6.49652777777778 22.5705729166667  6.33333333333333 22.953125  6.33333333333333 23.4  C 6.33333333333333 23.846875  6.49652777777778 24.2294270833333  6.82291666666667 24.54765625  C 7.14930555555556 24.8658854166667  7.54166666666667 25.025  8 25.025  C 8.45833333333333 25.025  8.85069444444444 24.8658854166667  9.17708333333333 24.54765625  Z M 13.8020833333333 20.60703125  C 13.9340277777778 20.4783854166667  14 20.3260416666667  14 20.15  L 14 5.85  C 14 5.67395833333333  13.9340277777778 5.52161458333333  13.8020833333333 5.39296875  C 13.6701388888889 5.26432291666666  13.5138888888889 5.2  13.3333333333333 5.2  L 2.66666666666667 5.2  C 2.48611111111111 5.2  2.32986111111111 5.26432291666666  2.19791666666667 5.39296875  C 2.06597222222222 5.52161458333333  2 5.67395833333333  2 5.85  L 2 20.15  C 2 20.3260416666667  2.06597222222222 20.4783854166667  2.19791666666667 20.60703125  C 2.32986111111111 20.7356770833333  2.48611111111111 20.8  2.66666666666667 20.8  L 13.3333333333333 20.8  C 13.5138888888889 20.8  13.6701388888889 20.7356770833333  13.8020833333333 20.60703125  Z M 9.66666666666667 3.25  C 9.88888888888889 3.25  10 3.14166666666666  10 2.925  C 10 2.70833333333333  9.88888888888889 2.6  9.66666666666667 2.6  L 6.33333333333333 2.6  C 6.11111111111111 2.6  6 2.70833333333333  6 2.925  C 6 3.14166666666666  6.11111111111111 3.25  6.33333333333333 3.25  L 9.66666666666667 3.25  Z M 15.2083333333333 0.771874999999999  C 15.7361111111111 1.28645833333333  16 1.89583333333333  16 2.6  L 16 23.4  C 16 24.1041666666667  15.7361111111111 24.7135416666667  15.2083333333333 25.228125  C 14.6805555555556 25.7427083333333  14.0555555555556 26  13.3333333333333 26  L 2.66666666666667 26  C 1.94444444444444 26  1.31944444444444 25.7427083333333  0.791666666666667 25.228125  C 0.263888888888889 24.7135416666667  0 24.1041666666667  0 23.4  L 0 2.6  C 0 1.89583333333333  0.263888888888889 1.28645833333333  0.791666666666667 0.771874999999999  C 1.31944444444444 0.257291666666664  1.94444444444444 0  2.66666666666667 0  L 13.3333333333333 0  C 14.0555555555556 0  14.6805555555556 0.257291666666664  15.2083333333333 0.771874999999999  Z " fill-rule="nonzero" fill="#000000" stroke="none" transform="matrix(1 0 0 1 885 512 )" />
  </g>
</svg>