<?xml version="1.0" encoding="utf-8"?>
<svg version="1.1" xmlns:xlink="http://www.w3.org/1999/xlink" width="29px" height="24px" xmlns="http://www.w3.org/2000/svg">
  <g transform="matrix(1 0 0 1 -1055 -511 )">
    <path d="M 7.85888671875 6.68345323741007  C 8.09488932291667 6.4484412470024  8.212890625 6.13429256594724  8.212890625 5.7410071942446  C 8.212890625 5.34772182254196  8.09488932291667 5.03117505995204  7.85888671875 4.79136690647482  C 7.62288411458333 4.5515587529976  7.31136067708333 4.43165467625899  6.92431640625 4.43165467625899  C 6.51839192708333 4.43165467625899  6.15966796875 4.55395683453238  5.84814453125 4.79856115107914  C 5.53662109375 5.0431654676259  5.380859375 5.35731414868105  5.380859375 5.7410071942446  C 5.380859375 6.11510791366906  5.53662109375 6.42446043165468  5.84814453125 6.66906474820144  C 6.15966796875 6.9136690647482  6.51839192708333 7.03597122302158  6.92431640625 7.03597122302158  C 7.31136067708333 7.03597122302158  7.62288411458333 6.91846522781774  7.85888671875 6.68345323741007  Z M 18.372802734375 13.7697841726619  C 18.613525390625 13.5587529976019  18.73388671875 13.3141486810552  18.73388671875 13.0359712230216  C 18.73388671875 12.7673860911271  18.613525390625 12.5275779376499  18.372802734375 12.3165467625899  C 18.132080078125 12.10551558753  17.8229166666667 12  17.4453125 12  C 17.1904296875 12  16.956787109375 12.1079136690648  16.744384765625 12.3237410071942  C 16.531982421875 12.5395683453237  16.42578125 12.7769784172662  16.42578125 13.0359712230216  C 16.42578125 13.3045563549161  16.531982421875 13.5467625899281  16.744384765625 13.7625899280576  C 16.956787109375 13.9784172661871  17.1904296875 14.0863309352518  17.4453125 14.0863309352518  C 17.8229166666667 14.0863309352518  18.132080078125 13.9808153477218  18.372802734375 13.7697841726619  Z M 15.045166015625 6.68345323741007  C 15.2764485677083 6.4484412470024  15.39208984375 6.13429256594724  15.39208984375 5.7410071942446  C 15.39208984375 5.34772182254196  15.2764485677083 5.03117505995204  15.045166015625 4.79136690647482  C 14.8138834635417 4.5515587529976  14.5047200520833 4.43165467625899  14.11767578125 4.43165467625899  C 13.7117513020833 4.43165467625899  13.35302734375 4.55395683453238  13.04150390625 4.79856115107914  C 12.72998046875 5.0431654676259  12.57421875 5.35731414868105  12.57421875 5.7410071942446  C 12.57421875 6.11510791366906  12.72998046875 6.42446043165468  13.04150390625 6.66906474820144  C 13.35302734375 6.9136690647482  13.7117513020833 7.03597122302158  14.11767578125 7.03597122302158  C 14.5047200520833 7.03597122302158  14.8138834635417 6.91846522781774  15.045166015625 6.68345323741007  Z M 24.015625 13.7697841726619  C 24.2610677083333 13.5587529976019  24.3837890625 13.3141486810552  24.3837890625 13.0359712230216  C 24.3837890625 12.7673860911271  24.2610677083333 12.5275779376499  24.015625 12.3165467625899  C 23.7701822916667 12.10551558753  23.46337890625 12  23.09521484375 12  C 22.84033203125 12  22.606689453125 12.1079136690648  22.394287109375 12.3237410071942  C 22.181884765625 12.5395683453237  22.07568359375 12.7769784172662  22.07568359375 13.0359712230216  C 22.07568359375 13.3045563549161  22.181884765625 13.5467625899281  22.394287109375 13.7625899280576  C 22.606689453125 13.9784172661871  22.84033203125 14.0863309352518  23.09521484375 14.0863309352518  C 23.46337890625 14.0863309352518  23.7701822916667 13.9808153477218  24.015625 13.7697841726619  Z M 18.684326171875 3.57553956834532  C 19.6802571614583 4.69304556354916  20.3245442708333 5.94244604316547  20.6171875 7.32374100719424  C 20.3245442708333 7.28537170263789  19.994140625 7.26618705035971  19.6259765625 7.26618705035971  C 18.0305989583333 7.26618705035971  16.5626627604167 7.63549160671463  15.22216796875 8.37410071942446  C 13.8816731770833 9.11270983213429  12.8267415364583 10.1127098321343  12.057373046875 11.3741007194245  C 11.2880045572917 12.6354916067146  10.9033203125 14.0143884892086  10.9033203125 15.5107913669065  C 10.9033203125 16.2589928057554  11.0118815104167 16.9880095923261  11.22900390625 17.6978417266187  C 10.8986002604167 17.726618705036  10.57763671875 17.7410071942446  10.26611328125 17.7410071942446  C 10.0206705729167 17.7410071942446  9.78466796875 17.7338129496403  9.55810546875 17.7194244604317  C 9.33154296875 17.705035971223  9.07194010416667 17.673860911271  8.779296875 17.6258992805755  C 8.48665364583333 17.5779376498801  8.276611328125 17.5443645083933  8.149169921875 17.5251798561151  C 8.021728515625 17.5059952038369  7.76448567708333 17.4556354916067  7.37744140625 17.3741007194245  C 6.99039713541667 17.2925659472422  6.75439453125 17.242206235012  6.66943359375 17.2230215827338  L 3.0869140625 19.0503597122302  L 4.1064453125 15.9136690647482  C 1.36881510416667 13.9664268585132  0 11.6163069544364  0 8.86330935251799  C 0 7.24220623501199  0.460205078125 5.75059952038369  1.380615234375 4.38848920863309  C 2.301025390625 3.02637889688249  3.547119140625 1.95443645083933  5.118896484375 1.1726618705036  C 6.690673828125 0.390887290167864  8.40641276041667 0  10.26611328125 0  C 11.9275716145833 0  13.4969889322917 0.316546762589929  14.974365234375 0.949640287769784  C 16.4517415364583 1.58273381294964  17.6883951822917 2.45803357314149  18.684326171875 3.57553956834532  Z M 27.789306640625 11.6043165467626  C 28.596435546875 12.7697841726619  29 14.0335731414868  29 15.3956834532374  C 29 16.5179856115108  28.6766764322917 17.589928057554  28.030029296875 18.6115107913669  C 27.3833821614583 19.6330935251799  26.5078125 20.5611510791367  25.4033203125 21.3956834532374  L 26.18212890625 24  L 23.3642578125 22.431654676259  C 21.9482421875 22.7865707434053  20.9192708333333 22.9640287769784  20.27734375 22.9640287769784  C 18.6819661458333 22.9640287769784  17.2140299479167 22.6258992805755  15.87353515625 21.9496402877698  C 14.5330403645833 21.273381294964  13.4781087239583 20.3549160671463  12.708740234375 19.1942446043165  C 11.9393717447917 18.0335731414868  11.5546875 16.7673860911271  11.5546875 15.3956834532374  C 11.5546875 14.0239808153477  11.9393717447917 12.757793764988  12.708740234375 11.5971223021583  C 13.4781087239583 10.4364508393285  14.5330403645833 9.51798561151079  15.87353515625 8.84172661870504  C 17.2140299479167 8.16546762589928  18.6819661458333 7.8273381294964  20.27734375 7.8273381294964  C 21.7972005208333 7.8273381294964  23.2273763020833 8.16546762589928  24.56787109375 8.84172661870504  C 25.9083658854167 9.51798561151079  26.982177734375 10.4388489208633  27.789306640625 11.6043165467626  Z " fill-rule="nonzero" fill="#000000" stroke="none" transform="matrix(1 0 0 1 1055 511 )" />
  </g>
</svg>