<?xml version="1.0" encoding="utf-8"?>
<svg version="1.1" xmlns:xlink="http://www.w3.org/1999/xlink" width="26px" height="23px" xmlns="http://www.w3.org/2000/svg">
  <g transform="matrix(1 0 0 1 -671 -373 )">
    <path d="M 671.5 388.6  C 671.5 388.6  671.5 373.5  671.5 373.5  C 671.5 373.5  696.5 373.5  696.5 373.5  C 696.5 373.5  696.5 388.6  696.5 388.6  C 696.5 388.6  688.984097720223 388.6  688.984097720223 388.6  C 688.984097720223 388.6  682.7 395.270811426083  682.7 395.270811426083  C 682.7 395.270811426083  676.415902279777 388.6  676.415902279777 388.6  C 676.415902279777 388.6  671.5 388.6  671.5 388.6  Z " fill-rule="nonzero" fill="#d7d7d7" stroke="none" />
    <path d="M 671 389.1  C 671 389.1  671 373  671 373  C 671 373  697 373  697 373  C 697 373  697 389.1  697 389.1  C 697 389.1  689.2 389.1  689.2 389.1  C 689.2 389.1  682.7 396  682.7 396  C 682.7 396  676.2 389.1  676.2 389.1  C 676.2 389.1  671 389.1  671 389.1  Z M 672 388.1  C 672 388.1  676.631804559554 388.1  676.631804559554 388.1  C 676.631804559554 388.1  682.7 394.541622852166  682.7 394.541622852166  C 682.7 394.541622852166  688.768195440446 388.1  688.768195440446 388.1  C 688.768195440446 388.1  696 388.1  696 388.1  C 696 388.1  696 374  696 374  C 696 374  672 374  672 374  C 672 374  672 388.1  672 388.1  Z " fill-rule="nonzero" fill="#797979" stroke="none" />
  </g>
</svg>