<?xml version="1.0" encoding="utf-8"?>
<svg version="1.1" xmlns:xlink="http://www.w3.org/1999/xlink" width="18px" height="18px" xmlns="http://www.w3.org/2000/svg">
  <g transform="matrix(1 0 0 1 -575 -196 )">
    <path d="M 584 196  C 589.04 196  593 199.96  593 205  C 593 210.04  589.04 214  584 214  C 578.96 214  575 210.04  575 205  C 575 199.96  578.96 196  584 196  Z " fill-rule="nonzero" fill="#ffffff" stroke="none" />
    <path d="M 584 196.5  C 588.76 196.5  592.5 200.24  592.5 205  C 592.5 209.76  588.76 213.5  584 213.5  C 579.24 213.5  575.5 209.76  575.5 205  C 575.5 200.24  579.24 196.5  584 196.5  Z " stroke-width="1" stroke="#797979" fill="none" />
  </g>
</svg>