<?xml version="1.0" encoding="utf-8"?>
<svg version="1.1" xmlns:xlink="http://www.w3.org/1999/xlink" width="56px" height="16px" xmlns="http://www.w3.org/2000/svg">
  <defs>
    <mask fill="white" id="clip2">
      <path d="M 0 16  L 0 0  L 23 0  L 32 0  L 56 0  L 56 16  L 30 16  L 0 16  Z " fill-rule="evenodd" />
    </mask>
  </defs>
  <g transform="matrix(1 0 0 1 -100 -393 )">
    <path d="M 0 16  L 0 0  L 23 0  L 32 0  L 56 0  L 56 16  L 30 16  L 0 16  Z " fill-rule="nonzero" fill="#ffffff" stroke="none" transform="matrix(1 0 0 1 100 393 )" />
    <path d="M 0 16  L 0 0  L 23 0  L 32 0  L 56 0  L 56 16  L 30 16  L 0 16  Z " stroke-width="2" stroke="#797979" fill="none" transform="matrix(1 0 0 1 100 393 )" mask="url(#clip2)" />
  </g>
</svg>