<?xml version="1.0" encoding="utf-8"?>
<svg version="1.1" xmlns:xlink="http://www.w3.org/1999/xlink" width="15px" height="22px" xmlns="http://www.w3.org/2000/svg">
  <g transform="matrix(1 0 0 1 -981 -303 )">
    <path d="M 10.1513671875 9.92578125  C 10.8837890625 9.20963541666667  11.25 8.34548611111111  11.25 7.33333333333333  C 11.25 6.32118055555555  10.8837890625 5.45703125  10.1513671875 4.74088541666667  C 9.4189453125 4.02473958333333  8.53515625 3.66666666666667  7.5 3.66666666666667  C 6.46484375 3.66666666666667  5.5810546875 4.02473958333333  4.8486328125 4.74088541666667  C 4.1162109375 5.45703125  3.75 6.32118055555555  3.75 7.33333333333333  C 3.75 8.34548611111111  4.1162109375 9.20963541666667  4.8486328125 9.92578125  C 5.5810546875 10.6419270833333  6.46484375 11  7.5 11  C 8.53515625 11  9.4189453125 10.6419270833333  10.1513671875 9.92578125  Z M 12.802734375 2.1484375  C 14.267578125 3.58072916666667  15 5.30902777777778  15 7.33333333333333  C 15 8.37413194444444  14.8388671875 9.22873263888889  14.5166015625 9.89713541666667  L 9.1845703125 20.9830729166667  C 9.0283203125 21.2981770833333  8.79638671875 21.5464409722222  8.48876953125 21.7278645833333  C 8.18115234375 21.9092881944444  7.8515625 22  7.5 22  C 7.1484375 22  6.81884765625 21.9092881944444  6.51123046875 21.7278645833333  C 6.20361328125 21.5464409722222  5.9765625 21.2981770833333  5.830078125 20.9830729166667  L 0.4833984375 9.89713541666667  C 0.1611328125 9.22873263888889  0 8.37413194444444  0 7.33333333333333  C 0 5.30902777777778  0.732421875 3.58072916666667  2.197265625 2.1484375  C 3.662109375 0.716145833333334  5.4296875 0  7.5 0  C 9.5703125 0  11.337890625 0.716145833333334  12.802734375 2.1484375  Z " fill-rule="nonzero" fill="#000000" stroke="none" transform="matrix(1 0 0 1 981 303 )" />
  </g>
</svg>